<?xml version="1.0" encoding="utf-8"?>
<!-- Generated by IcoMoon.io -->
<svg version="1.1" xmlns="http://www.w3.org/2000/svg" xmlns:xlink="http://www.w3.org/1999/xlink" width="752" height="32" viewBox="0 0 752 32">
<svg id="icon-vue-dot-js" width="32" height="32" viewBox="0 0 32 32" x="0" y="0">
<path fill="#4fc08d" d="M25.596 2.144l0.004-0.008h-5.9l-3.7 6.4-3.696-6.4h-5.9v0.007h-6.404l16 27.715 16-27.713z"></path>
</svg>
<svg id="icon-javascript" width="32" height="32" viewBox="0 0 32 32" x="48" y="0">
<path fill="#f7df1e" d="M0 0h32v32h-32v-32zM29.379 24.368c-0.233-1.46-1.184-2.687-4.004-3.831-0.981-0.46-2.072-0.78-2.396-1.52-0.121-0.44-0.14-0.68-0.061-0.94 0.2-0.861 1.22-1.12 2.020-0.88 0.52 0.16 1 0.56 1.301 1.2 1.379-0.901 1.379-0.901 2.34-1.5-0.36-0.56-0.539-0.801-0.781-1.040-0.84-0.94-1.959-1.42-3.779-1.379l-0.94 0.119c-0.901 0.22-1.76 0.7-2.28 1.34-1.52 1.721-1.081 4.721 0.759 5.961 1.82 1.36 4.481 1.659 4.821 2.94 0.32 1.56-1.16 2.060-2.621 1.88-1.081-0.24-1.68-0.781-2.34-1.781l-2.44 1.401c0.28 0.64 0.6 0.919 1.080 1.479 2.32 2.341 8.12 2.221 9.161-1.339 0.039-0.12 0.32-0.94 0.099-2.2l0.061 0.089zM17.401 14.708h-2.997c0 2.584-0.012 5.152-0.012 7.74 0 1.643 0.084 3.151-0.184 3.615-0.44 0.919-1.573 0.801-2.088 0.64-0.528-0.261-0.796-0.621-1.107-1.14-0.084-0.14-0.147-0.261-0.169-0.261l-2.433 1.5c0.407 0.84 1 1.563 1.765 2.023 1.14 0.68 2.672 0.9 4.276 0.54 1.044-0.301 1.944-0.921 2.415-1.881 0.68-1.24 0.536-2.76 0.529-4.461 0.016-2.739 0-5.479 0-8.239l0.005-0.075z"></path>
</svg>
<svg id="icon-sass" width="32" height="32" viewBox="0 0 32 32" x="96" y="0">
<path fill="#c69" d="M16 0c8.836 0 16 7.164 16 16s-7.164 16-16 16-16-7.164-16-16 7.164-16 16-16zM12.82 21.331c0.233 0.86 0.208 1.664-0.032 2.389l-0.087 0.24c-0.032 0.081-0.069 0.16-0.104 0.235-0.187 0.387-0.435 0.747-0.74 1.080-0.931 1.012-2.229 1.396-2.787 1.073-0.6-0.349-0.301-1.78 0.779-2.92 1.161-1.224 2.827-2.012 2.827-2.012v-0.004l0.144-0.081zM26.035 6.849c-0.723-2.844-5.436-3.779-9.896-2.193-2.652 0.943-5.525 2.424-7.591 4.356-2.457 2.295-2.848 4.295-2.687 5.131 0.569 2.948 4.609 4.876 6.271 6.307v0.008c-0.489 0.24-4.075 2.039-4.915 3.9-0.9 1.96 0.14 3.361 0.82 3.54 2.1 0.581 4.26-0.48 5.42-2.199 1.12-1.681 1.021-3.841 0.539-4.901 0.661-0.18 1.44-0.26 2.44-0.139 2.801 0.32 3.361 2.080 3.24 2.8-0.12 0.719-0.697 1.139-0.899 1.259-0.2 0.121-0.26 0.16-0.241 0.241 0.020 0.12 0.121 0.12 0.28 0.1 0.22-0.040 1.461-0.6 1.521-1.961 0.060-1.72-1.581-3.639-4.5-3.6-1.2 0.021-1.961 0.121-2.5 0.341-0.040-0.060-0.081-0.1-0.14-0.14-1.8-1.94-5.14-3.3-5-5.88 0.040-0.94 0.38-3.419 6.4-6.419 4.94-2.461 8.881-1.78 9.561-0.28 0.977 2.139-2.101 6.12-7.241 6.699-1.96 0.22-2.98-0.539-3.241-0.82-0.279-0.3-0.319-0.32-0.419-0.259-0.16 0.080-0.060 0.34 0 0.5 0.16 0.4 0.78 1.1 1.861 1.46 0.939 0.3 3.24 0.479 6-0.6 3.099-1.199 5.519-4.54 4.819-7.34l0.097 0.089z"></path>
</svg>
<svg id="icon-npm" width="32" height="32" viewBox="0 0 32 32" x="144" y="0">
<path fill="#cb3837" d="M0 9.779v10.667h8.888v1.776h7.112v-1.776h16v-10.667h-32zM8.888 18.664h-1.776v-5.333h-1.78v5.333h-3.552v-7.108h7.108v7.108zM14.221 18.664v1.781h-3.553v-8.889h7.112v7.109l-3.559-0.001zM30.223 18.664h-1.773v-5.333h-1.781v5.333h-1.78v-5.333h-1.773v5.333h-3.561v-7.108h10.669v7.108z"></path>
<path fill="#cb3837" d="M14.22 13.333h1.78v3.556h-1.78v-3.556z"></path>
</svg>
<svg id="icon-gatsby" width="32" height="32" viewBox="0 0 32 32" x="192" y="0">
<path fill="#639" d="M16.001 0.009c-8.9 0-15.992 7.092-15.992 15.991s7.092 15.993 15.991 15.993 15.992-7.092 15.992-15.992-7.091-15.992-15.991-15.992zM3.485 16.14l12.377 12.377c-6.815 0-12.377-5.563-12.377-12.377zM18.783 28.239l-15.019-15.019c1.249-5.563 6.257-9.735 12.236-9.735 4.151 0.008 7.831 2.017 10.128 5.113l0.024 0.034-1.807 1.528c-1.864-2.702-4.943-4.449-8.429-4.449-0.019 0-0.037 0-0.056 0h0.003c-0.019-0-0.042-0-0.065-0-4.396 0-8.135 2.816-9.51 6.743l-0.022 0.071 13.072 13.073c3.2-1.113 5.701-3.893 6.397-7.232h-5.424v-2.364h8.205c0 5.98-4.172 10.987-9.735 12.237z"></path>
</svg>
<svg id="icon-git" width="32" height="32" viewBox="0 0 32 32" x="240" y="0">
<path fill="#f05032" d="M31.395 14.573l-13.972-13.971c-0.805-0.804-2.109-0.804-2.917 0l-2.895 2.9 3.68 3.68c0.86-0.287 1.839-0.093 2.519 0.588 0.688 0.687 0.877 1.677 0.584 2.533l3.544 3.547c0.86-0.297 1.849-0.104 2.533 0.58 0.961 0.96 0.961 2.512 0 3.472-0.959 0.959-2.508 0.959-3.467 0-0.719-0.721-0.899-1.783-0.539-2.661l-3.319-3.301v8.7c0.235 0.115 0.456 0.271 0.651 0.464 0.951 0.961 0.951 2.511 0 3.467-0.959 0.961-2.519 0.961-3.479 0-0.959-0.959-0.959-2.505 0-3.464 0.243-0.24 0.516-0.421 0.807-0.541v-8.785c-0.289-0.121-0.565-0.296-0.8-0.535-0.727-0.727-0.901-1.789-0.528-2.679l-3.616-3.633-9.581 9.575c-0.8 0.807-0.8 2.112 0 2.919l13.973 13.969c0.805 0.805 2.109 0.805 2.915 0l13.907-13.907c0.807-0.804 0.807-2.109 0-2.916z"></path>
</svg>
<svg id="icon-html5" width="32" height="32" viewBox="0 0 32 32" x="288" y="0">
<path fill="#e34f26" d="M2 0h28l-2.547 28.751-11.484 3.249-11.419-3.251-2.551-28.749zM11.375 13l-0.309-3.624 13.412 0.004 0.307-3.496-17.568-0.004 0.931 10.68h12.168l-0.435 4.568-3.88 1.072-3.94-1.080-0.251-2.813h-3.479l0.44 5.561 7.229 1.933 7.172-1.924 0.992-10.876h-12.789z"></path>
</svg>
<svg id="icon-gulp" width="32" height="32" viewBox="0 0 32 32" x="336" y="0">
<path fill="#da4648" d="M20.208 25.909l0.848-1.445s-1.925 0.788-5.147 0.788c-3.224 0-5.12-0.757-5.12-0.757l0.948 1.577 0.336 4.972c0 0.537 1.752 0.957 3.915 0.957 2.164 0 3.917-0.419 3.917-0.957l0.305-5.113v-0.021zM21.028 16.515c-1.025 0.061-1.537 1.204-2.052 2.407-0.191 0.44-0.84 2.316-1.264 2.084-0.424-0.231 0.551-1.772 0.825-2.689-0.316 0.232-1.473 1.132-1.772 0.287-0.477 0.419-1.505 0.64-1.389-0.439-0.255 0.46-0.828 1.097-1.519 0.819-0.897-0.34 0.527-3.215 0.88-3.076 0.355 0.161-0.071 0.8-0.181 1.059-0.248 0.559-0.531 1.277-0.34 1.417 0.32 0.259 1.205-0.937 1.225-0.959 0.165-0.22 0.639-1.639 1.017-1.476 0.38 0.179-0.948 2.055-0.453 2.435 0.101 0.080 0.511-0.040 0.759-0.319 0.16-0.16 0.104-0.56 0.639-1.837 0.539-1.279 1.019-2.875 1.385-2.755s0.065 0.937-0.068 1.257c-0.619 1.437-1.691 3.792-1.187 3.613 0.499-0.18 0.759-0.18 1.257-0.759s0.46-1.536 0.799-1.516c0.32 0.019 0.28 0.339 0.2 0.557 0.32-0.36 1.536-1.157 1.817-0.379 0.339 0.917-1.739 2.256-1.219 2.176 0.5-0.060 1.317-0.579 1.677-1.057l0.959-8.667s-0.979 0.8-7.148 0.8-7.045-0.779-7.045-0.779l0.817 7.907c0.44-1.237 1.477-3.752 3.096-3.653 0.739 0.040 1.737 1.479 0.877 1.519-0.36 0.020-0.4-0.719-0.819-0.819-0.319-0.061-0.739 0.18-1.017 0.46-0.539 0.539-1.739 2.675-1.579 3.735 0.2 1.357 1.876-0.461 2.156-1 0.199-0.377 0.339-1.517 0.757-1.397 0.44 0.12-0.039 1.299-0.36 2.316-0.36 1.159-0.539 2.375-0.976 2.235-0.44-0.139 0.279-1.636 0.237-1.896-0.417 0.399-1.177 1.36-2.175 0.879l0.499 4.932s1.359 1.057 5.431 1.057 5.491-1.057 5.491-1.057l0.639-5.711c-0.519 0.52-2.156 1.417-2.256 0.4-0.079-0.819 1.777-1.997 1.299-2.019l0.080-0.092zM23.128 0.892l-3.545 3.733-0.648 2.535c2.508 0.16 4.252 0.515 4.252 0.925 0 0.559-3.219 1.009-7.188 1.009s-7.187-0.457-7.187-1.017c0-0.559 3.219-1.019 7.188-1.019 0.564 0 1.125 0 1.685 0.021l0.748-3.035 3.767-3.993c0.091-0.12 0.373-0.020 0.632 0.2 0.259 0.199 0.399 0.459 0.319 0.579v0.040l-0.023 0.021zM18.016 8.619s-0.697 0-0.813-0.107c-0.029-0.033-0.048-0.077-0.048-0.12 0-0.077 0.052-0.121 0.12-0.147l0.059 0.1c-0.028 0.008-0.039 0.020-0.044 0.031 0 0.055 0.419 0.092 0.74 0.088 0.319-0.004 0.708-0.031 0.711-0.085 0-0.016-0.031-0.031-0.081-0.044l0.060-0.096c0.084 0.027 0.156 0.077 0.156 0.161 0 0.147-0.188 0.171-0.307 0.188-0.143 0.020-0.549 0.031-0.549 0.031h-0.003z"></path>
</svg>
<svg id="icon-adobephotoshop" width="32" height="32" viewBox="0 0 32 32" x="384" y="0">
<path fill="#00c8ff" d="M0 0.4v31.2h32v-31.2h-32zM1.333 1.733h29.333v28.533h-29.333v-28.533zM7.733 7.707c0-0.089 0.187-0.155 0.299-0.155 0.859-0.044 2.117-0.067 3.437-0.067 3.696 0 5.133 2.027 5.133 4.621 0 3.387-2.456 4.84-5.469 4.84-0.507 0-0.68-0.023-1.033-0.023v5.123c0 0.111-0.044 0.155-0.153 0.155h-2.059c-0.111 0-0.153-0.040-0.153-0.151v-14.344zM10.1 14.789c0.307 0.021 0.549 0.021 1.080 0.021 1.56 0 3.027-0.549 3.027-2.661 0-1.693-1.048-2.552-2.829-2.552-0.528 0-1.033 0.021-1.276 0.044v5.152zM21.576 13.205c-1.056 0-1.408 0.528-1.408 0.968 0 0.484 0.24 0.813 1.649 1.54 2.091 1.013 2.749 1.98 2.749 3.409 0 2.133-1.627 3.28-3.827 3.28-1.168 0-2.16-0.244-2.733-0.573-0.087-0.044-0.107-0.109-0.107-0.22v-1.956c0-0.133 0.064-0.177 0.152-0.112 0.832 0.551 1.803 0.792 2.683 0.792 1.056 0 1.496-0.44 1.496-1.035 0-0.484-0.307-0.903-1.649-1.607-1.893-0.907-2.685-1.827-2.685-3.369 0-1.716 1.341-3.147 3.673-3.147 1.147 0 1.952 0.176 2.392 0.373 0.109 0.067 0.133 0.176 0.133 0.264v1.827c0 0.111-0.067 0.177-0.2 0.133-0.592-0.352-1.467-0.573-2.324-0.573z"></path>
</svg>
<svg id="icon-react" width="32" height="32" viewBox="0 0 32 32" x="432" y="0">
<path fill="#61dafb" d="M18.852 16c0 1.575-1.277 2.852-2.852 2.852s-2.852-1.277-2.852-2.852c0-1.575 1.277-2.852 2.852-2.852s2.852 1.277 2.852 2.852z"></path>
<path fill="#61dafb" d="M8.011 21.673l-0.629-0.16c-4.691-1.185-7.381-3.197-7.381-5.519s2.691-4.333 7.381-5.519l0.629-0.159 0.177 0.624c0.545 1.86 1.163 3.443 1.899 4.957l-0.082-0.186 0.135 0.284-0.135 0.284c-0.656 1.329-1.275 2.912-1.761 4.551l-0.056 0.22-0.177 0.623zM7.089 11.933c-3.565 1.001-5.753 2.533-5.753 4.061 0 1.527 2.188 3.059 5.753 4.061 0.512-1.62 1.046-2.965 1.662-4.263l-0.086 0.202c-0.531-1.098-1.066-2.443-1.511-3.828l-0.065-0.234zM23.989 21.673l-0.177-0.625c-0.544-1.859-1.162-3.441-1.9-4.954l0.081 0.184-0.135-0.284 0.135-0.284c0.656-1.329 1.275-2.911 1.762-4.55l0.056-0.221 0.177-0.624 0.631 0.159c4.689 1.185 7.38 3.197 7.38 5.52s-2.691 4.333-7.38 5.519l-0.631 0.16zM23.335 15.995c0.64 1.385 1.169 2.747 1.576 4.061 3.567-1.003 5.753-2.535 5.753-4.061 0-1.528-2.188-3.059-5.753-4.061-0.511 1.619-1.045 2.963-1.662 4.262l0.086-0.2z"></path>
<path fill="#61dafb" d="M7.080 11.927l-0.177-0.623c-1.319-4.648-0.919-7.979 1.097-9.141 1.977-1.141 5.152 0.207 8.479 3.621l0.453 0.465-0.453 0.465c-1.146 1.19-2.207 2.482-3.162 3.853l-0.068 0.103-0.18 0.257-0.313 0.027c-1.875 0.151-3.596 0.439-5.264 0.86l0.218-0.047-0.629 0.159zM9.608 3.087c-0.357 0-0.673 0.077-0.94 0.231-1.325 0.764-1.56 3.42-0.647 7.004 1.21-0.285 2.681-0.521 4.18-0.658l0.131-0.010c0.894-1.264 1.792-2.37 2.756-3.414l-0.020 0.022c-2.080-2.025-4.049-3.175-5.46-3.175zM22.393 30.236c-0.001 0-0.001 0 0 0-1.9 0-4.34-1.431-6.872-4.031l-0.453-0.465 0.453-0.465c1.146-1.19 2.206-2.482 3.16-3.854l0.068-0.103 0.18-0.257 0.312-0.027c1.875-0.15 3.597-0.438 5.267-0.858l-0.218 0.046 0.629-0.159 0.179 0.624c1.316 4.645 0.917 7.977-1.099 9.139-0.449 0.259-0.988 0.411-1.562 0.411-0.016 0-0.031-0-0.047-0l0.002 0zM16.932 25.728c2.080 2.025 4.049 3.175 5.46 3.175h0.001c0.356 0 0.673-0.077 0.939-0.231 1.325-0.764 1.561-3.421 0.647-7.005-1.212 0.286-2.682 0.522-4.182 0.658l-0.13 0.010c-0.893 1.265-1.791 2.371-2.755 3.416l0.020-0.022z"></path>
<path fill="#61dafb" d="M24.92 11.927l-0.629-0.159c-1.453-0.376-3.175-0.664-4.939-0.806l-0.111-0.007-0.312-0.027-0.18-0.257c-1.021-1.474-2.082-2.766-3.237-3.966l0.009 0.010-0.453-0.465 0.453-0.465c3.325-3.413 6.499-4.761 8.479-3.621 2.016 1.163 2.416 4.493 1.099 9.14l-0.179 0.624zM19.667 9.653c1.523 0.139 2.969 0.364 4.312 0.668 0.915-3.584 0.679-6.24-0.647-7.004-1.317-0.761-3.793 0.405-6.4 2.944 0.943 1.022 1.841 2.128 2.666 3.289l0.069 0.103zM9.608 30.236c-0.014 0-0.030 0-0.046 0-0.574 0-1.113-0.152-1.577-0.419l0.015 0.008c-2.016-1.161-2.416-4.492-1.097-9.139l0.176-0.624 0.629 0.159c1.54 0.388 3.239 0.661 5.047 0.812l0.313 0.027 0.179 0.257c1.022 1.475 2.083 2.767 3.239 3.967l-0.010-0.010 0.453 0.465-0.453 0.465c-2.531 2.6-4.971 4.031-6.868 4.031zM8.021 21.667c-0.915 3.584-0.679 6.241 0.647 7.005 1.316 0.751 3.791-0.407 6.4-2.944-0.943-1.022-1.841-2.129-2.667-3.29l-0.069-0.103c-1.629-0.146-3.099-0.382-4.534-0.711l0.224 0.043z"></path>
<path fill="#61dafb" d="M16 22.504c-1.097 0-2.225-0.048-3.355-0.141l-0.313-0.027-0.18-0.257c-0.544-0.768-1.139-1.691-1.697-2.639l-0.103-0.19c-0.452-0.758-0.971-1.732-1.45-2.728l-0.105-0.243-0.133-0.284 0.133-0.284c0.584-1.239 1.102-2.212 1.658-3.161l-0.103 0.191c0.552-0.955 1.159-1.907 1.8-2.829l0.18-0.257 0.313-0.027c1.005-0.090 2.174-0.142 3.355-0.142s2.35 0.052 3.505 0.153l-0.15-0.011 0.312 0.027 0.179 0.257c1.177 1.666 2.294 3.567 3.252 5.56l0.104 0.24 0.135 0.284-0.135 0.284c-1.058 2.232-2.176 4.133-3.439 5.925l0.083-0.125-0.179 0.257-0.312 0.027c-1.129 0.093-2.259 0.141-3.356 0.141zM13.071 21.059c1.973 0.148 3.885 0.148 5.86 0 1.004-1.445 1.978-3.104 2.827-4.836l0.101-0.228c-0.947-1.958-1.922-3.617-3.012-5.19l0.083 0.126c-0.877-0.071-1.898-0.111-2.929-0.111s-2.052 0.040-3.063 0.119l0.134-0.008c-1.008 1.447-1.983 3.106-2.83 4.84l-0.099 0.224c0.951 1.96 1.926 3.619 3.014 5.193l-0.085-0.13z"></path>
</svg>
<svg id="icon-css3" width="32" height="32" viewBox="0 0 32 32" x="480" y="0">
<path fill="#1572b6" d="M2 0h28l-2.547 28.751-11.484 3.249-11.42-3.251-2.549-28.749zM24.787 5.884l-17.573-0.004 0.284 3.496 13.5 0.003-0.34 3.621h-8.853l0.32 3.431h8.243l-0.488 4.697-3.88 1.072-3.941-1.080-0.251-2.813h-3.48l0.387 5.14 7.287 2.271 7.164-2.040 1.623-17.792z"></path>
</svg>
</svg>
